The Matrix 1999 1080p BluRay DTS x264-HiDt
______________________________________________________________________________

The Matrix (1999)

Plot:

A computer hacker learns from mysterious rebels about the true nature 
of his reality and his role in the war against the controllers of it.

The.Matrix.1999.1080p.BluRay.DTS.x264-HiDt

General Information:

RUNTIME........: 02:16:17
SIZE...........: DVD9+DVD5
VIDEO CODEC....: x264 - 2pass (DXVA)
RESOLUTION.....: 1920x798 OAR
BITRATE........: 10.8 Mbps
FRAMERATE......: 23.976 fps
AUDIO1.........: English DTS 5.1 1536 kbps
AUDIO2,3,4.....: English AC3 2ch 192 Kbps - 3 commentary tracks
SUBTITLES......: eng, ger, fre, spa, bul, por, swe, fin, nor, ro, gre, chi - ASS
SOURCE.........: The Matrix 1999 1080p Blu-ray VC1 TrueHD 5.1 (tnx by sinner20b4)
RATING.........: 8.6/10   298,583 votes
IMDB link......: http://www.imdb.com/title/tt0133093/

Other:

ENCODER........: changebg
RELEASE DATE...: 15.11.2008
MAIL...........: changebg@gmail.com

Genres:Action, Adventure, Sci-Fi 

Rated R for sci-fi violence and brief language

Cast
Cast overview, first billed only: 
  Keanu Reeves  ...  Neo  
  Laurence Fishburne  ...  Morpheus  
  Carrie-Anne Moss  ...  Trinity  
  Hugo Weaving  ...  Agent Smith  
  Gloria Foster  ...  Oracle  
  Joe Pantoliano  ...  Cypher  
  Marcus Chong  ...  Tank  
  Julian Arahanga  ...  Apoc  
  Matt Doran  ...  Mouse  
  Belinda McClory  ...  Switch  
  Anthony Ray Parker  ...  Dozer  
  Paul Goddard  ...  Agent Brown  
  Robert Taylor  ...  Agent Jones  
  David Aston  ...  Rhineheart  
  Marc Aden  ...  Choi (as Marc Gray)  

Storyline
Thomas A. Anderson is a man living two lives. By day he is an average computer programmer and by night a malevolent hacker known as Neo. Neo has always questioned his reality but the truth is far beyond his imagination. Neo finds himself targeted by the police when he is contacted by Morpheus, a legendary computer hacker branded a terrorist by the government. Morpheus awakens Neo to the real world, a ravaged wasteland where most of humanity have been captured by a race of machines which live off of their body heat and imprison their minds within an artificial reality known as the Matrix. As a rebel against the machines, Neo must return to the Matrix and confront the agents, super powerful computer programs devoted to snuffing out Neo and the entire human rebellion. Written by redcommander27  



[img]http://torrent-stats.info/e25d/10feb2151.png[/img]


Complete name : D:\The.Matrix.1999.1080p.BluRay.DTS.x264-HiDt\The.Matrix.1999.1080p.BluRay.DTS.x264-HiDt.mkv 
Format : Matroska 
File size : 12.3 GiB 
Duration : 2h 16mn 
Overall bit rate : 12.9 Mbps 
Encoded date : UTC 2008-11-15 07:13:30 
Writing application : mkvmerge v2.2.0 ('Turn It On Again') built on Mar 4 2008 12:58:26 
Writing library : libebml v0.7.7 + libmatroska v0.8.1 

Video 
ID : 1 
Format : AVC 
Format/Info : Advanced Video Codec 
Format profile : High@L4.1 
Format settings, CABAC : Yes 
Format settings, ReFrames : 4 frames 
Muxing mode : Container profile=Unknown@4.1 
Codec ID : V_MPEG4/ISO/AVC 
Duration : 2h 16mn 
Bit rate : 10.8 Mbps 
Width : 1 920 pixels 
Height : 798 pixels 
Display aspect ratio : 2.40:1 
Frame rate : 23.976 fps 
Color space : YUV 
Chroma subsampling : 4:2:0 
Bit depth : 8 bits 
Scan type : Progressive 
Bits/(Pixel*Frame) : 0.295 
Stream size : 10.1 GiB (82%) 
Writing library : x264 core 65 r1024M 2652abe 
Encoding settings : cabac=1 / ref=4 / deblock=1:-3:-3 / analyse=0x3:0x113 / me=umh / subme=9 / psy_rd=1.0:0.0 / mixed_ref=1 / me_range=32 / chroma_me=1 / trellis=1 / 8x8dct=1 / cqm=0 / deadzone=21,11 / chroma_qp_offset=-2 / threads=8 / nr=0 / decimate=0 / mbaff=0 / bframes=3 / b_pyramid=0 / b_adapt=2 / b_bias=0 / direct=3 / wpredb=1 / keyint=250 / keyint_min=25 / scenecut=40(pre) / rc=2pass / bitrate=10830 / ratetol=1.0 / qcomp=0.60 / qpmin=10 / qpmax=51 / qpstep=4 / cplxblur=20.0 / qblur=0.5 / vbv_maxrate=50000 / vbv_bufsize=50000 / ip_ratio=1.40 / pb_ratio=1.30 / aq=1:1.00 
Language : English 

Audio #1 
ID : 2 
Format : DTS 
Format/Info : Digital Theater Systems 
Codec ID : A_DTS 
Duration : 2h 16mn 
Bit rate mode : Constant 
Bit rate : 1 510 Kbps 
Channel(s) : 6 channels 
Channel positions : Front: L C R, Side: L R, LFE 
Sampling rate : 48.0 KHz 
Bit depth : 24 bits 
Stream size : 1.44 GiB (12%) 

Audio #2 
ID : 3 
Format : AC-3 
Format/Info : Audio Coding 3 
Format profile : Dolby Digital 
Mode extension : CM (complete main) 
Codec ID : A_AC3 
Duration : 2h 16mn 
Bit rate mode : Constant 
Bit rate : 192 Kbps 
Channel(s) : 2 channels 
Channel positions : Front: L R 
Sampling rate : 48.0 KHz 
Bit depth : 16 bits 
Stream size : 187 MiB (1%) 

Audio #3 
ID : 4 
Format : AC-3 
Format/Info : Audio Coding 3 
Format profile : Dolby Digital 
Mode extension : CM (complete main) 
Codec ID : A_AC3 
Duration : 2h 16mn 
Bit rate mode : Constant 
Bit rate : 192 Kbps 
Channel(s) : 2 channels 
Channel positions : Front: L R 
Sampling rate : 48.0 KHz 
Bit depth : 16 bits 
Stream size : 187 MiB (1%) 

Audio #4 
ID : 5 
Format : AC-3 
Format/Info : Audio Coding 3 
Format profile : Dolby Digital 
Mode extension : CM (complete main) 
Codec ID : A_AC3 
Duration : 2h 16mn 
Bit rate mode : Constant 
Bit rate : 192 Kbps 
Channel(s) : 2 channels 
Channel positions : Front: L R 
Sampling rate : 48.0 KHz 
Bit depth : 16 bits 
Stream size : 187 MiB (1%) 

Text #1 
ID : 6 
Format : ASS 
Codec ID : S_TEXT/ASS 
Codec ID/Info : Advanced Sub Station Alpha 
Language : English German French Spanish Bulgarian 
         : Portuguese  Swedish Finnish Norwegian
         : Romanian Greek  Chinese

 
http://www.imagebam.com/image/a00842120910027 
http://www.imagebam.com/image/ff5913120910037 
http://www.imagebam.com/image/4346fc120910045 
http://www.imagebam.com/image/8e34fa120910056 
http://www.imagebam.com/image/7ab05d120910063 
http://www.imagebam.com/image/c441fd120910077